<svg class="firma" viewBox="0 0 239 191" fill="none" xmlns="http://www.w3.org/2000/svg">
<g id="firma">
<path id="Vector 3" d="M52.0633 124.192C57.2986 115.691 61.0773 105.912 64.7748 96.7822C66.9617 91.3829 66.2665 84.2042 66.3041 78.3084C66.3341 73.601 65.1353 66.293 64.2146 61.6158C63.6812 58.9057 63.1478 56.1957 62.6144 53.4857C62.2565 51.6676 63.3301 57.1219 63.688 58.94C64.5304 63.2197 65.5627 67.5743 68.2329 70.9803C71.3159 74.9127 82.7448 74.2594 84.6156 69.6797C85.9577 66.3943 87.6117 63.5419 88.3057 59.9739C89.0461 56.1676 88.7849 57.1599 89.4623 60.6014C90.4918 65.8313 92.2186 71.3566 92.1411 76.6969C92.0857 80.5238 90.784 85.0107 91.1239 88.6561C91.887 96.8405 89.5184 103.409 88.6994 111.422C87.7125 121.077 83.8454 133.736 77.9768 141.754C69.5442 153.275 60.4525 156.615 46.6138 158.938C30.984 161.561 19.6925 143.958 18.3926 131.033C16.7696 114.897 23.1566 98.8992 30.0854 84.6358C37.1242 70.1458 41.2842 52.9229 55.6226 43.103C63.656 37.6012 72.7005 43.3686 81.5542 41.4195C90.9314 39.3552 83.8629 25.5716 89.2112 24.5189" stroke="black" stroke-width="3" stroke-linecap="round"/>
<path id="Vector 2" d="M101.273 110.657C105.581 110.241 106.242 116.328 109.84 116.614C113.339 116.893 120.484 108.231 118.431 105.837C117.996 105.331 117.337 102.767 117.534 103.768C117.997 106.118 118.459 108.468 118.922 110.818C119.574 114.13 119.95 116.602 123.825 115.839C126.62 115.289 130.985 111.1 131.068 108.16C131.217 102.816 131.405 102.614 133.145 108.767C134.34 112.994 135.052 118.7 140.657 116.268C146.527 113.72 151.803 103.233 153.082 97.6265C153.84 94.3081 155.684 91.873 156.133 88.2604C156.77 83.1276 157.384 78.0007 156.471 72.8537C155.964 69.9963 153.773 61.6023 154.842 64.3017C156.826 69.3073 158.018 74.5729 159.564 79.7278C161.708 86.8748 162.73 94.6093 165.123 101.617C166.257 104.937 167.644 108.586 169.231 111.712C170.172 113.566 171.659 113.266 169.623 112.597C162.47 110.247 149.709 109.6 143.439 116.04C136.738 122.924 130.471 132.197 129.409 141.999C128.882 146.869 135.797 161.742 133.397 149.552" stroke="black" stroke-width="3" stroke-linecap="round"/>
<path id="Vector 1" d="M175.466 104.712C178.814 105.695 183.972 111.856 187.681 110.967C190.632 110.259 189.228 105.016 188.839 103.042C188.101 99.2905 191.517 103.564 192.07 104.811C193.433 107.892 196.662 111.707 200.912 110.233C204.739 108.906 202.062 100.613 202.071 100.651C202.378 101.912 204.65 105.074 205.603 105.889C206.976 107.062 209.175 107.331 210.24 108.45C211.433 109.704 213.274 108.815 214.872 108.501C217.377 108.008 215.349 103.464 215.009 101.739C213.503 94.0862 217.141 94.5849 224.464 93.1435C226.979 92.6485 222.936 92.5104 222.24 92.6191C219.475 93.0513 218.71 93.6629 216.701 95.4197C213.946 97.8298 213.972 104.269 216.312 107.255C218.689 110.287 226.132 109.785 226.496 105.678C226.693 103.457 225.488 92.0831 228.302 99.6572C230.713 106.147 231.854 112.732 233.194 119.54C234.673 127.052 235.581 132.412 231.812 139.588C230.346 142.378 226.888 151.354 223.388 152.043C221.035 152.506 216.471 153.836 214.638 151.788C209.76 146.336 208.521 143.363 207.165 136.475C206.203 131.587 209.173 128.908 210.722 124.711" stroke="black" stroke-width="3" stroke-linecap="round"/>
</g>
</svg>
